<svg xmlns="http://www.w3.org/2000/svg" width="100" height="100" viewBox="0 0 100 100" id="add"><g transform="translate(0 -952.362)"><path style="line-height:normal;text-indent:0;text-align:start;text-decoration-line:none;text-decoration-style:solid;text-decoration-color:#000;text-transform:none;block-progression:tb;white-space:normal;isolation:auto;mix-blend-mode:normal;solid-color:#000;solid-opacity:1" d="m 63.644531,993.65234 c -12.33759,0 -22.355469,10.01786 -22.355469,22.35546 0,12.3376 10.017879,22.3555 22.355469,22.3555 C 75.982121,1038.3633 86,1028.3454 86,1016.0078 86,1003.6702 75.982121,993.65234 63.644531,993.65234 Z m 0,1.5 c 11.526929,0 20.855469,9.32856 20.855469,20.85546 0,11.527 -9.32854,20.8555 -20.855469,20.8555 -11.526928,0 -20.855468,-9.3285 -20.855469,-20.8555 0,-11.5269 9.328541,-20.85546 20.855469,-20.85546 z" color="#000" enable-background="accumulate" font-family="sans-serif" font-weight="400" overflow="visible"></path><path style="line-height:normal;text-indent:0;text-align:start;text-decoration-line:none;text-decoration-style:solid;text-decoration-color:#000;text-transform:none;block-progression:tb;white-space:normal;isolation:auto;mix-blend-mode:normal;solid-color:#000;solid-opacity:1" d="M37.400391 966.38672c-6.128879-.28381-12.288832 1.95452-16.857422 6.52539-7.309745 7.31339-8.649608 18.6979-3.236328 27.50779 5.413279 8.8099 16.174822 12.7594 26.001953 9.543a.75013417.75013417 0 10-.466797-1.4258c-9.175112 3.003-19.203697-.6769-24.257813-8.90233-5.054115-8.22539-3.805221-18.83396 3.019532-25.66211 6.824753-6.82816 17.432266-8.08128 25.660156-3.03125 8.22789 5.05002 11.912528 15.07533 8.914062 24.25195a.75012608.75012608 0 101.425782.4668c3.211547-9.82874-.744047-20.5872-9.556641-25.9961-3.304723-2.02834-6.969157-3.10706-10.646484-3.27734zM62.894531 1005.0078l0 22 1.5 0 0-22-1.5 0z" color="#000" enable-background="accumulate" font-family="sans-serif" font-weight="400" overflow="visible"></path><path style="line-height:normal;text-indent:0;text-align:start;text-decoration-line:none;text-decoration-style:solid;text-decoration-color:#000;text-transform:none;block-progression:tb;white-space:normal;isolation:auto;mix-blend-mode:normal;solid-color:#000;solid-opacity:1" d="m 52.644531,1015.6113 0,1.5 22,0 0,-1.5 -22,0 z" color="#000" enable-background="accumulate" font-family="sans-serif" font-weight="400" overflow="visible"></path><path style="line-height:normal;text-indent:0;text-align:start;text-decoration-line:none;text-decoration-style:solid;text-decoration-color:#000;text-transform:none;block-progression:tb;white-space:normal;isolation:auto;mix-blend-mode:normal;solid-color:#000;solid-opacity:1" fill-rule="evenodd" d="m 33.044922,978.9668 -6.439453,6.43945 0,13.06055 0.75,0 12.310547,0 6.439453,-6.43946 0,-13.06054 -13.060547,0 z m 0.621094,1.5 10.939453,0 0,10.93945 -5.560547,5.56055 -10.939453,0 0,-10.93946 5.560547,-5.56054 z" color="#000" enable-background="accumulate" font-family="sans-serif" font-weight="400" overflow="visible"></path><path style="line-height:normal;text-indent:0;text-align:start;text-decoration-line:none;text-decoration-style:solid;text-decoration-color:#000;text-transform:none;block-progression:tb;white-space:normal;isolation:auto;mix-blend-mode:normal;solid-color:#000;solid-opacity:1" fill-rule="evenodd" d="m 44.824219,979.1875 -5.779297,5.7793 -11.689453,0 0,1.5 12.310547,0 6.21875,-6.21875 -1.060547,-1.06055 z" color="#000" enable-background="accumulate" font-family="sans-serif" font-weight="400" overflow="visible"></path><path style="line-height:normal;text-indent:0;text-align:start;text-decoration-line:none;text-decoration-style:solid;text-decoration-color:#000;text-transform:none;block-progression:tb;white-space:normal;isolation:auto;mix-blend-mode:normal;solid-color:#000;solid-opacity:1" fill-rule="evenodd" d="m 38.605469,985.7168 0,12 1.5,0 0,-12 -1.5,0 z" color="#000" enable-background="accumulate" font-family="sans-serif" font-weight="400" overflow="visible"></path></g></svg>