<svg xmlns="http://www.w3.org/2000/svg" width="32" height="32" id="product"><path style="line-height:normal;text-indent:0;text-align:start;text-decoration-line:none;text-decoration-style:solid;text-decoration-color:#000;text-transform:none;block-progression:tb;white-space:normal;isolation:auto;mix-blend-mode:normal;solid-color:#000;solid-opacity:1" d="M12 3c-.545 0-1 .455-1 1H6.5C5.678 4 5 4.678 5 5.5v23c0 .822.678 1.5 1.5 1.5h18c.822 0 1.5-.678 1.5-1.5v-23c0-.822-.678-1.5-1.5-1.5H20c0-.545-.455-1-1-1h-7zm0 1h7v2.012h-7V4zM6.5 5h.537c-.181.27-.287.598-.287.947V21.03c-.01.684 1.01.684 1 0V5.947a.67.67 0 0 1 .678-.685H11v.75c0 .545.455 1 1 1h7c.545 0 1-.455 1-1v-.75h2.572a.67.67 0 0 1 .678.685V22h-1.857c-.754 0-1.269.447-1.477.857-.208.411-.201.807-.201.807v2.324H8.428a.67.67 0 0 1-.678-.685v-2.23c.01-.685-1.01-.685-1 0v2.23c0 .931.757 1.697 1.678 1.697h11.787a.5.5 0 0 0 .353-.148l3.536-3.573a.509.509 0 0 0 .146-.357V5.947c0-.349-.106-.676-.287-.947h.537c.286 0 .5.215.5.5v23c0 .286-.214.5-.5.5h-18a.488.488 0 0 1-.5-.5v-23c0-.285.214-.5.5-.5zm3.23 5.506a.99.99 0 0 0-.98.98v9.29c0 .534.446.98.98.98h11.54a.99.99 0 0 0 .98-.98v-9.29a.99.99 0 0 0-.98-.98h-2.024a.5.5 0 1 0 0 1h2.004v9.25H9.75v-9.25h8.008a.5.5 0 1 0 0-1H9.73zm3.243 1.5v.002a.5.5 0 0 0-.266.094l-1.062.744-.274-.293a.5.5 0 0 0-.73.683l.57.61a.5.5 0 0 0 .652.066l1.418-.994a.5.5 0 0 0-.308-.912zm1.968 1a.5.5 0 0 0 .051 1h5a.5.5 0 1 0 0-1h-5a.5.5 0 0 0-.05 0zm-1.968 2v.002a.5.5 0 0 0-.266.094l-1.062.744-.274-.293a.5.5 0 0 0-.73.683l.57.61a.5.5 0 0 0 .652.066l1.418-.994a.5.5 0 0 0-.308-.912zm1.968 1a.5.5 0 0 0 .051 1h5a.5.5 0 1 0 0-1h-5a.5.5 0 0 0-.05 0zm-1.968 2v.002a.5.5 0 0 0-.266.094l-1.062.744-.274-.293a.5.5 0 0 0-.73.683l.57.61a.5.5 0 0 0 .652.066l1.418-.994a.5.5 0 0 0-.308-.912zm1.968 1a.5.5 0 0 0 .051 1h5a.5.5 0 1 0 0-1h-5a.5.5 0 0 0-.05 0zM21.393 23h1.15l-1.828 1.826v-1.162s.007-.184.094-.355c.086-.172.159-.309.584-.309z" color="#000" enable-background="accumulate" font-family="sans-serif" font-weight="400" overflow="visible"></path></svg>