<svg xmlns="http://www.w3.org/2000/svg" width="128" height="128" fill="none" viewBox="0 0 128 128" id="throw"><path stroke="#000" stroke-linecap="round" stroke-width="6" d="M33 40H95.5M53 40V28C53 26.8954 53.8954 26 55 26H74C75.1046 26 76 26.8954 76 28V40M91 51L87.1438 94.7031C86.7795 98.8329 83.3206 102 79.1748 102L64 102 49.0372 102C44.9062 102 41.4545 98.8547 41.0716 94.7415L40.5604 89.25"></path><path stroke="#000" stroke-linecap="round" stroke-width="6" d="M36.9999 51.0605L39.2714 73.0174C39.6873 77.0384 43.0377 80.1173 47.0795 80.1928L59.42 80.4233C63.9417 80.5077 67.6344 76.8301 67.5685 72.3081L67.3116 54.6754M67.3116 54.6754L76 62.765M67.3116 54.6754L58.5 62.765"></path></svg>