<svg xmlns="http://www.w3.org/2000/svg" width="24" height="24" fill="none" id="user-edit"><path fill="#000" fill-rule="evenodd" d="M8.009 7.313a3.25 3.25 0 1 0 0 6.5 3.25 3.25 0 0 0 0-6.5Zm-4.75 3.25a4.75 4.75 0 1 1 9.5 0 4.75 4.75 0 0 1-9.5 0Z" clip-rule="evenodd"></path><path fill="#000" fill-rule="evenodd" d="M1.259 20.563a6.75 6.75 0 0 1 13.5 0v.28c0 .621-.435 1.157-1.043 1.285l-1.751.369c-2.609.549-5.304.549-7.913 0l-1.751-.37a1.313 1.313 0 0 1-1.042-1.283v-.28zm6.75-5.25a5.25 5.25 0 0 0-5.25 5.25v.128l1.602.338c2.405.506 4.89.506 7.295 0l1.602-.338v-.128c0-2.9-2.35-5.25-5.25-5.25zm5.85-8.522 4.11-4.109a2.25 2.25 0 0 1 3.181 3.182l-4.108 4.11H13.86V6.79zm1.5.622v1.06h1.061l3.67-3.67a.75.75 0 0 0-1.06-1.06l-3.67 3.67z" clip-rule="evenodd"></path></svg>