<svg xmlns="http://www.w3.org/2000/svg" width="100" height="100" viewBox="0 0 100 100" id="edit"><g transform="translate(0 -952.362)"><path style="line-height:normal;text-indent:0;text-align:start;text-decoration-line:none;text-decoration-style:solid;text-decoration-color:#000;text-transform:none;block-progression:tb;white-space:normal;isolation:auto;mix-blend-mode:normal;solid-color:#000;solid-opacity:1" d="m 63.6452,993.65296 c -12.3376,0 -22.3555,10.01784 -22.3555,22.35544 0,12.3376 10.0179,22.3535 22.3555,22.3535 12.3376,0 22.3555,-10.0159 22.3555,-22.3535 0,-12.3376 -10.0179,-22.35554 -22.3555,-22.35544 z m 0,1.5 c 11.5269,0 20.8555,9.32854 20.8555,20.85544 0,11.527 -9.3286,20.8535 -20.8555,20.8535 -11.5269,0 -20.8555,-9.3265 -20.8555,-20.8535 0,-11.5269 9.3286,-20.85544 20.8555,-20.85544 z" color="#000" enable-background="accumulate" font-family="sans-serif" font-weight="400" overflow="visible"></path><path style="line-height:normal;text-indent:0;text-align:start;text-decoration-line:none;text-decoration-style:solid;text-decoration-color:#000;text-transform:none;block-progression:tb;white-space:normal;isolation:auto;mix-blend-mode:normal;solid-color:#000;solid-opacity:1" d="m 37.398438,966.38672 c -6.128879,-0.28381 -12.288832,1.95452 -16.857422,6.52539 -7.309746,7.31339 -8.647655,18.6979 -3.234375,27.50779 5.413279,8.8099 16.172869,12.7594 26,9.543 a 0.75013417,0.75013417 0 1 0 -0.466797,-1.4258 c -9.175112,3.003 -19.201744,-0.6769 -24.25586,-8.90233 -5.054115,-8.22539 -3.805221,-18.83396 3.019532,-25.66211 6.824753,-6.82816 17.432266,-8.08128 25.660156,-3.03125 8.22789,5.05002 11.912528,15.07533 8.914062,24.25195 a 0.75012608,0.75012608 0 1 0 1.425782,0.4668 c 3.211547,-9.82874 -0.744047,-20.5872 -9.556641,-25.9961 -3.304723,-2.02834 -6.97111,-3.10706 -10.648437,-3.27734 z" color="#000" enable-background="accumulate" font-family="sans-serif" font-weight="400" overflow="visible"></path><path style="line-height:normal;text-indent:0;text-align:start;text-decoration-line:none;text-decoration-style:solid;text-decoration-color:#000;text-transform:none;block-progression:tb;white-space:normal;isolation:auto;mix-blend-mode:normal;solid-color:#000;solid-opacity:1" fill-rule="evenodd" d="m 33.042969,978.96875 -6.439453,6.43945 0,13.06055 0.75,0 12.310546,0 6.439454,-6.43945 0,-13.06055 -13.060547,0 z m 0.621093,1.5 10.939454,0 0,10.93945 -5.560547,5.56055 -10.939453,0 0,-10.93945 5.560546,-5.56055 z" color="#000" enable-background="accumulate" font-family="sans-serif" font-weight="400" overflow="visible"></path><path style="line-height:normal;text-indent:0;text-align:start;text-decoration-line:none;text-decoration-style:solid;text-decoration-color:#000;text-transform:none;block-progression:tb;white-space:normal;isolation:auto;mix-blend-mode:normal;solid-color:#000;solid-opacity:1" fill-rule="evenodd" d="m 44.824219,979.18945 -5.78125,5.7793 -11.689453,0 0,1.5 12.310546,0 6.220704,-6.21875 -1.060547,-1.06055 z" color="#000" enable-background="accumulate" font-family="sans-serif" font-weight="400" overflow="visible"></path><path style="line-height:normal;text-indent:0;text-align:start;text-decoration-line:none;text-decoration-style:solid;text-decoration-color:#000;text-transform:none;block-progression:tb;white-space:normal;isolation:auto;mix-blend-mode:normal;solid-color:#000;solid-opacity:1" fill-rule="evenodd" d="m 38.603516,985.71875 0,12 1.5,0 0,-12 -1.5,0 z" color="#000" enable-background="accumulate" font-family="sans-serif" font-weight="400" overflow="visible"></path><path style="line-height:normal;text-indent:0;text-align:start;text-decoration-line:none;text-decoration-style:solid;text-decoration-color:#000;text-transform:none;block-progression:tb;white-space:normal;isolation:auto;mix-blend-mode:normal;solid-color:#000;solid-opacity:1" d="m 69.875,1003.7109 -1.056641,1.0645 6.080079,6.0371 1.05664,-1.0645 -6.080078,-6.0371 z" color="#000" enable-background="accumulate" font-family="sans-serif" font-weight="400" overflow="visible"></path><path style="line-height:normal;text-indent:0;text-align:start;text-decoration-line:none;text-decoration-style:solid;text-decoration-color:#000;text-transform:none;block-progression:tb;white-space:normal;isolation:auto;mix-blend-mode:normal;solid-color:#000;solid-opacity:1" d="m 69.359375,1004.2344 -15.121094,15.1211 -3.009765,9.0312 8.689453,-2.582 -0.425781,-1.4375 -5.929688,1.7617 1.988281,-5.9629 14.869141,-14.8711 -1.060547,-1.0605 z" color="#000" enable-background="accumulate" font-family="sans-serif" font-weight="400" overflow="visible"></path><path style="line-height:normal;text-indent:0;text-align:start;text-decoration-line:none;text-decoration-style:solid;text-decoration-color:#000;text-transform:none;block-progression:tb;white-space:normal;isolation:auto;mix-blend-mode:normal;solid-color:#000;solid-opacity:1" d="m 74.357422,1009.2324 -14.464844,14.4649 -4.46875,-4.4668 -1.060547,1.0605 5.529297,5.5274 15.525391,-15.5254 -1.060547,-1.0606 z" color="#000" enable-background="accumulate" font-family="sans-serif" font-weight="400" overflow="visible"></path></g></svg>