<svg xmlns="http://www.w3.org/2000/svg" viewBox="0 0 60 60" id="hiring"><path d="M15.277 40.423c.051.055.116.092.178.134C18.423 42.713 22.06 44 26 44s7.577-1.287 10.545-3.443c.062-.042.127-.08.178-.134.436-.324.855-.666 1.258-1.028l12.312 12.312a.997.997 0 0 0 1.414 0 1 1 0 0 0 0-1.414L39.395 37.981C42.248 34.795 44 30.603 44 26c0-9.925-8.075-18-18-18S8 16.075 8 26c0 5.905 2.871 11.139 7.277 14.423zM17 39.218V38c0-2.757 2.243-5 5-5h8c2.757 0 5 2.243 5 5v1.218C32.434 40.971 29.335 42 26 42s-6.434-1.029-9-2.782zM26 10c8.822 0 16 7.178 16 16 0 4.38-1.772 8.352-4.633 11.244-.023.02-.052.027-.074.049s-.03.05-.05.074c-.084.084-.177.158-.263.24C36.774 33.93 33.727 31 30 31h-8c-3.727 0-6.774 2.93-6.98 6.607C11.937 34.688 10 30.57 10 26c0-8.822 7.178-16 16-16z"></path><path d="M26 29c3.309 0 6-2.691 6-6s-2.691-6-6-6-6 2.691-6 6 2.691 6 6 6zm0-10c2.206 0 4 1.794 4 4s-1.794 4-4 4-4-1.794-4-4 1.794-4 4-4z"></path></svg>