<svg xmlns="http://www.w3.org/2000/svg" width="64" height="64" enable-background="new 0 0 64 64" viewBox="0 0 64 64" id="search-product"><path d="M58.907,51.688c-0.255-1.367-1.021-2.668-2.156-3.663l-8.568-7.506c1.61-3.15,2.537-6.713,2.537-10.494
		C50.72,17.33,40.465,7,27.86,7S5,17.33,5,30.025c0,12.696,10.255,23.025,22.86,23.025c5.37,0,10.304-1.888,14.21-5.021l8.356,7.321
		c1.136,0.995,2.521,1.578,3.9,1.643C54.412,56.999,54.498,57,54.583,57c1.366,0,2.562-0.518,3.387-1.473
		C58.847,54.512,59.18,53.149,58.907,51.688z M7.15,30.025c0-11.502,9.291-20.86,20.71-20.86c11.42,0,20.711,9.358,20.711,20.86
		c0,11.502-9.291,20.86-20.711,20.86C16.44,50.885,7.15,41.527,7.15,30.025z M56.349,54.105c-0.437,0.506-1.107,0.765-1.923,0.726
		c-0.897-0.042-1.817-0.438-2.589-1.114L43.7,46.59c1.284-1.247,2.42-2.642,3.389-4.16l8.251,7.229
		c0.772,0.676,1.288,1.538,1.454,2.428C56.943,52.884,56.785,53.601,56.349,54.105z"></path><path d="M38.554,18.363H17.167c-1.186,0-2.15,0.971-2.15,2.165v5.676c0,1.194,0.964,2.166,2.15,2.166h0.259v12.838
		c0,1.194,0.964,2.166,2.15,2.166h16.569c1.186,0,2.15-0.971,2.15-2.166V28.37h0.259c1.186,0,2.15-0.972,2.15-2.166v-5.676
		C40.704,19.334,39.74,18.363,38.554,18.363z M36.142,41.208H19.576V28.37h16.569L36.142,41.208z M38.551,26.204h-2.406H19.576
		h-2.409v-5.676h21.387L38.551,26.204z"></path></svg>