<svg xmlns="http://www.w3.org/2000/svg" viewBox="0 0 48 48" id="workflow"><path d="M30 1H18a2 2 0 0 0-2 2v8a2 2 0 0 0 2 2H30a2 2 0 0 0 2-2V3A2 2 0 0 0 30 1zm-4 9H20a1 1 0 0 1 0-2h6A1 1 0 0 1 26 10zm2-4H20a1 1 0 0 1 0-2h8A1 1 0 0 1 28 6zM30 18H18a2 2 0 0 0-2 2v8a2 2 0 0 0 2 2H30a2 2 0 0 0 2-2V20A2 2 0 0 0 30 18zm-4 9H20a1 1 0 0 1 0-2h6A1 1 0 0 1 26 27zm2-4H20a1 1 0 0 1 0-2h8A1 1 0 0 1 28 23zM30 35H18a2 2 0 0 0-2 2v8a2 2 0 0 0 2 2H30a2 2 0 0 0 2-2V37A2 2 0 0 0 30 35zm-4 9H20a1 1 0 0 1 0-2h6A1 1 0 0 1 26 44zm2-4H20a1 1 0 0 1 0-2h8A1 1 0 0 1 28 40zM36 6a1 1 0 0 0 0 2c9.48 0 10.68 12.17 2.74 14.66a1 1 0 0 0-1.45-1.37c-1.92 1.93-2.1 2.06-2.21 2.33a1 1 0 0 0 .21 1.09C37.47 26.89 37.46 27 38 27a1 1 0 0 0 .71-1.71l-.46-.45A9.52 9.52 0 0 0 46 15.5C46 10.64 42.28 6 36 6zM12 25a1 1 0 0 0 0-2C5.66 23 2 27.7 2 32.5a9.52 9.52 0 0 0 7.75 9.34l-.46.45a1 1 0 0 0 1.42 1.42c3.08-3.09 3.08-2.34 0-5.42a1 1 0 0 0-1.45 1.37A7.51 7.51 0 0 1 12 25zM41.29 38.29L38 41.59l-1.29-1.3a1 1 0 0 0-1.42 1.42c3.29 3.28 2 3.4 7.42-2A1 1 0 0 0 41.29 38.29zM5 7c5.29 0 4.71-.13 4.29.29A1 1 0 0 0 10 9c.54 0 .57-.15 2.71-2.29a1 1 0 0 0 0-1.39l-2-2A1 1 0 0 0 9.29 4.71C9.69 5.1 10.51 5 5 5A1 1 0 0 0 5 7z"></path></svg>